<svg width="251" height="243" viewBox="0 0 251 243" fill="none" xmlns="http://www.w3.org/2000/svg">
<path d="M63.8608 27.3698C63.8608 27.3698 67.8788 9.51636 86.9035 10.9194C105.932 12.3225 107.657 32.1605 107.657 32.1605L116.408 29.9034C116.408 29.9034 112.297 4.21318 87.5542 2.13909C62.8115 0.0690701 54.6412 21.664 56.5039 29.6472L56.6096 34.2102L64.5399 34.7796L63.8608 27.3698Z" fill="#215DB6" stroke="black" stroke-width="2.84679" stroke-linecap="round" stroke-linejoin="round"/>
<path d="M187.074 92.72C187.074 92.72 206.753 89.7593 200.519 52.3403C194.288 14.9253 162.86 13.7744 150.407 19.2077C137.959 24.641 134.054 31.7377 134.054 31.7377L142.025 38.3747C142.025 38.3747 152.323 18.5326 175.756 28.9275C199.189 39.3223 193.333 73.8051 190.441 80.2958C187.55 86.7864 180.604 85.0458 180.604 85.0458L187.074 92.72Z" fill="#215DB6" stroke="black" stroke-width="2.84679" stroke-linecap="round" stroke-linejoin="round"/>
<path d="M190.942 99.0075C190.942 99.0075 196.176 93.806 193.984 87.1364C192.381 82.2603 189.075 80.5197 189.075 80.5197C189.075 80.5197 193.008 75.4158 189.803 70.6413C186.598 65.8668 180.998 65.33 180.998 65.33C180.998 65.33 182.039 59.5185 176.956 53.6256C171.872 47.7328 165.748 47.6474 165.748 47.6474C165.748 47.6474 154.869 30.5991 130.907 26.1866C113.119 22.9128 107.97 26.211 107.97 26.211C107.97 26.211 99.2588 18.24 85.2078 22.2377C77.4401 24.4501 76.5739 29.5336 76.5739 29.5336C76.5739 29.5336 65.8822 24.8202 55.2596 29.188C47.6668 32.3072 46.5728 38.8467 46.5728 38.8467C46.5728 38.8467 37.5444 40.4287 32.4934 45.1666C23.3999 53.6948 26.2426 61.7512 26.2426 61.7512C26.2426 61.7512 19.2233 63.809 16.8116 69.8849C14.4 75.9607 16.8808 80.5603 16.8808 80.5603C16.8808 80.5603 10.3332 85.5747 9.58078 94.7373C9.1985 99.3695 12.6106 103.546 12.6106 103.546C12.6106 103.546 8.77962 117.243 15.4208 123.62C22.0619 129.997 26.3646 130.81 26.3646 130.81C26.3646 130.81 81.4338 141.494 117.023 141.177C152.612 140.859 190.942 99.0034 190.942 99.0034V99.0075Z" fill="#F18E8F" stroke="black" stroke-width="2.84679" stroke-linecap="round" stroke-linejoin="round"/>
<path d="M181.002 65.3298C181.002 65.3298 175.321 68.8354 167.427 67.1477C159.533 65.4599 156.085 55.6425 156.085 55.6425" stroke="black" stroke-width="2.84679" stroke-linecap="round" stroke-linejoin="round"/>
<path d="M168.708 67.3795C168.708 67.3795 165.642 70.698 165.158 77.2334C164.93 80.3324 167.419 84.8059 167.419 84.8059" stroke="black" stroke-width="2.84679" stroke-linecap="round" stroke-linejoin="round"/>
<path d="M141.863 75.5133C141.863 75.5133 135.571 74.3623 131.59 76.7658C127.609 79.1693 126.779 83.7893 126.779 83.7893" stroke="black" stroke-width="2.84679" stroke-linecap="round" stroke-linejoin="round"/>
<path d="M131.59 76.7658C131.59 76.7658 122.513 70.1653 119.247 59.5427C117.01 52.263 119.483 46.9721 116.286 39.8225C113.338 33.2261 107.97 26.2068 107.97 26.2068" stroke="black" stroke-width="2.84679" stroke-linecap="round" stroke-linejoin="round"/>
<path d="M99.9094 64.004C99.9094 64.004 98.0956 60.3154 98.4697 53.597C98.8439 46.8785 101.333 44.7312 101.333 44.7312C101.333 44.7312 97.7214 38.8221 93.3211 35.3084C86.0049 29.4684 76.5779 29.5334 76.5779 29.5334C76.5779 29.5334 65.4836 33.6206 63.8528 40.7376C62.222 47.8546 64.235 52.1736 64.235 52.1736" stroke="black" stroke-width="2.84679" stroke-linecap="round" stroke-linejoin="round"/>
<path d="M101.333 44.7312C101.333 44.7312 106.693 43.5315 111.317 49.0258" stroke="black" stroke-width="2.84679" stroke-linecap="round" stroke-linejoin="round"/>
<path d="M46.577 38.8506C46.577 38.8506 45.296 47.9034 47.9801 53.0927C50.6642 58.282 54.8124 61.9015 54.8124 61.9015" stroke="black" stroke-width="2.84679" stroke-linecap="round" stroke-linejoin="round"/>
<path d="M89.0712 79.8932C89.0712 79.8932 88.5588 74.9357 82.5195 70.3239C76.4843 65.708 65.6543 66.2042 65.6543 66.2042C65.6543 66.2042 70.1766 71.3772 68.2652 80.6781C66.3538 89.979 59.0823 93.753 59.0823 93.753" stroke="black" stroke-width="2.84679" stroke-linecap="round" stroke-linejoin="round"/>
<path d="M75.6871 93.0778C75.6871 93.0778 67.6429 88.6124 66.6953 85.3589" stroke="black" stroke-width="2.84679" stroke-linecap="round" stroke-linejoin="round"/>
<path d="M26.2467 61.7552C26.2467 61.7552 34.4495 61.4217 39.4558 64.4881" stroke="black" stroke-width="2.84679" stroke-linecap="round" stroke-linejoin="round"/>
<path d="M16.8848 80.564C16.8848 80.564 25.9254 74.8948 36.6537 81.3692C42.0545 84.6308 42.4774 93.7365 42.4774 93.7365C42.4774 93.7365 52.1728 93.7649 53.3806 100.658C54.5885 107.552 46.8167 110.935 46.8167 110.935" stroke="black" stroke-width="2.84679" stroke-linecap="round" stroke-linejoin="round"/>
<path d="M53.4703 102.806C53.4703 102.806 61.8399 108.735 69.1521 107.397" stroke="black" stroke-width="2.84679" stroke-linecap="round" stroke-linejoin="round"/>
<path d="M12.6143 103.55C12.6143 103.55 21.541 95.6238 38.1418 99.955" stroke="black" stroke-width="2.84679" stroke-linecap="round" stroke-linejoin="round"/>
<path d="M146.251 60.9255C146.251 60.9255 142.408 53.1619 144.181 44.0929C144.181 44.0929 138.512 39.5055 129.313 37.8462" stroke="black" stroke-width="2.84679" stroke-linecap="round" stroke-linejoin="round"/>
<path d="M169.745 53.3366L163.446 58.351C163.446 58.351 147.39 48.7655 144.039 44.9101C144.039 44.9101 145.755 38.6228 143.905 34.015C142.054 29.4073 138.911 27.4308 138.911 27.4308C138.911 27.4308 144.084 22.9329 149.96 25.251C152.539 26.2677 155.223 27.4878 158.037 29.1796C161.632 31.3431 165.447 34.2753 169.538 38.5211C169.538 38.5211 172.531 47.1631 169.745 53.3366Z" fill="#EC333F" stroke="black" stroke-width="2.44011" stroke-linecap="round" stroke-linejoin="round"/>
<path d="M144.038 44.9099L151.725 39.9076C151.725 39.9076 153.97 34.6858 151.489 29.8341C148.382 23.7582 143.815 24.9457 143.815 24.9457" stroke="black" stroke-width="2.44011" stroke-linecap="round" stroke-linejoin="round"/>
<path d="M151.729 39.9075L169.745 53.3362" stroke="black" stroke-width="2.44011" stroke-linecap="round" stroke-linejoin="round"/>
<path d="M41.0746 124.23C41.0746 124.23 29.7607 119.655 24.6121 112.159C19.4634 104.664 18.4264 102.074 18.4264 102.074L12.4278 102.736C12.4278 102.736 7.56384 107.161 5.65649 111.374C5.65649 111.374 7.30357 119.776 13.2208 126.832C17.1128 131.473 27.8005 136.983 27.8005 136.983L41.0665 124.226L41.0746 124.23Z" fill="#EC333F" stroke="black" stroke-width="2.44011" stroke-linecap="round" stroke-linejoin="round"/>
<path d="M12.4272 102.74C12.4272 102.74 16.673 115.01 22.875 119.886C29.0769 124.758 36.2712 128.85 36.2712 128.85" stroke="black" stroke-width="2.44011" stroke-linecap="round" stroke-linejoin="round"/>
<path d="M69.8923 79.6531L84.1547 61.4906L83.2397 52.8404L67.5091 49.9611L49.8184 68.1155L51.4532 75.8384L69.8923 79.6531Z" fill="#EC333F" stroke="black" stroke-width="2.44011" stroke-linecap="round" stroke-linejoin="round"/>
<path d="M83.2393 52.8402L67.7365 71.2346L69.8919 79.6529" stroke="black" stroke-width="2.44011" stroke-linecap="round" stroke-linejoin="round"/>
<path d="M67.7369 71.2345L49.8184 68.1152" stroke="black" stroke-width="2.44011" stroke-linecap="round" stroke-linejoin="round"/>
<path d="M53.2746 87.0303C53.2746 87.0303 51.8024 86.6846 48.6425 84.0249C45.4825 81.3652 46.1088 77.3228 46.1088 77.3228L57.313 69.4168C57.313 69.4168 60.9447 69.3274 63.2018 73.0892C65.4589 76.8551 64.2917 79.2342 64.2917 79.2342L53.2746 87.0263V87.0303Z" fill="#2CB135" stroke="black" stroke-width="2.44011" stroke-linecap="round" stroke-linejoin="round"/>
<path d="M53.5473 84.0044C53.5473 84.0044 41.3101 92.0812 43.673 103.293C46.0358 114.506 65.6827 112.322 65.6827 112.322L63.4785 120.057C63.4785 120.057 45.2753 122.127 37.8004 108.186C30.3256 94.2447 48.5613 78.4816 48.5613 78.4816C48.5613 78.4816 53.1894 80.5883 53.5513 84.0003L53.5473 84.0044Z" fill="#215DB6" stroke="black" stroke-width="2.84679" stroke-linecap="round" stroke-linejoin="round"/>
<path d="M164.722 33.9943C164.722 33.9943 166.064 36.105 165.722 40.4118" stroke="black" stroke-width="2.03342" stroke-linecap="round" stroke-linejoin="round"/>
<path d="M163.503 41.5958C163.267 42.6817 164.129 43.8122 165.353 43.983C166.48 44.1417 167.334 43.3893 167.342 42.4092C167.35 41.5185 166.65 40.6645 165.723 40.4124C164.731 40.1399 163.714 40.6238 163.503 41.5958Z" stroke="black" stroke-width="2.03342" stroke-linecap="round" stroke-linejoin="round"/>
<path d="M69.7819 55.4553C69.546 56.5411 70.4082 57.6717 71.6323 57.8425C72.7588 58.0011 73.6129 57.2487 73.621 56.2686C73.6291 55.378 72.9296 54.5239 72.0024 54.2718C71.0101 53.9993 69.9934 54.4833 69.7819 55.4553Z" stroke="black" stroke-width="2.03342" stroke-linecap="round" stroke-linejoin="round"/>
<path d="M15.9981 124.697C15.7622 125.783 16.6244 126.914 17.8485 127.085C18.975 127.243 19.829 126.491 19.8372 125.511C19.8453 124.62 19.1458 123.766 18.2186 123.514C17.2263 123.242 16.2095 123.725 15.9981 124.697Z" stroke="black" stroke-width="2.03342" stroke-linecap="round" stroke-linejoin="round"/>
<path d="M10.4709 114.567C10.235 115.653 11.0971 116.783 12.3213 116.954C13.4478 117.113 14.3018 116.36 14.3099 115.38C14.3181 114.49 13.6186 113.636 12.6913 113.383C11.699 113.111 10.6823 113.595 10.4709 114.567Z" stroke="black" stroke-width="2.03342" stroke-linecap="round" stroke-linejoin="round"/>
<path d="M62.6366 60.8153C62.4007 61.9011 63.2629 63.0317 64.487 63.2025C65.6136 63.3611 66.4676 62.6088 66.4757 61.6286C66.4839 60.738 65.7844 59.884 64.8571 59.6318C63.8648 59.3593 62.8481 59.8433 62.6366 60.8153Z" stroke="black" stroke-width="2.03342" stroke-linecap="round" stroke-linejoin="round"/>
<path d="M157.76 38.59C157.524 39.6758 158.386 40.8064 159.611 40.9772C160.737 41.1358 161.591 40.3835 161.599 39.4034C161.607 38.5127 160.908 37.6587 159.981 37.4065C158.988 37.1341 157.972 37.618 157.76 38.59Z" stroke="black" stroke-width="2.03342" stroke-linecap="round" stroke-linejoin="round"/>
<path d="M152.652 35.4827C152.652 35.4827 155.885 36.2106 157.862 38.2359" stroke="black" stroke-width="2.03342" stroke-linecap="round" stroke-linejoin="round"/>
<path d="M151.92 30.7979C151.92 30.7979 153.925 32.1928 155.348 32.9574C156.788 33.7301 158.805 34.5597 158.805 34.5597C158.805 34.5597 159.183 33.5349 158.878 31.9854C158.573 30.4237 157.536 28.8824 157.536 28.8824" stroke="black" stroke-width="2.03342" stroke-linecap="round" stroke-linejoin="round"/>
<path d="M69.782 55.4551L63.1083 54.2107" stroke="black" stroke-width="2.03342" stroke-linecap="round" stroke-linejoin="round"/>
<path d="M63.1614 62.5154L61.1645 64.6993L54.7104 63.2637" stroke="black" stroke-width="2.03342" stroke-linecap="round" stroke-linejoin="round"/>
<path d="M74.28 63.467L69.2574 62.5357L62.6122 69.9577" stroke="black" stroke-width="2.03342" stroke-linecap="round" stroke-linejoin="round"/>
<path d="M26.2303 122.388L22.7816 125.702L28.2312 129.537" stroke="black" stroke-width="2.03342" stroke-linecap="round" stroke-linejoin="round"/>
<path d="M16.844 123.628C16.844 123.628 14.9733 122.526 13.5011 120.293L18.6131 115.6" stroke="black" stroke-width="2.03342" stroke-linecap="round" stroke-linejoin="round"/>
<path d="M11.5489 113.404L7.67322 108.044" stroke="black" stroke-width="2.03342" stroke-linecap="round" stroke-linejoin="round"/>
<path d="M118.271 93.9482C118.271 93.9482 94.6382 70.5516 62.2417 87.0589C40.4393 98.1696 37.3201 118.211 37.3201 118.211C37.3201 118.211 27.0391 125.999 19.2511 129.114C19.2511 129.114 16.998 167.546 28.007 184.907C34.697 195.461 55.4338 208.544 82.0025 212.041C114.053 216.263 176.463 210.915 206.155 189.543C206.155 189.543 209.791 179.714 204.39 175.769L204.183 138.598C204.183 138.598 211.243 133.197 214.358 125.722C217.473 118.248 217.473 101.427 217.473 101.427C217.473 101.427 212.662 78.5145 182.169 80.8692C175.54 81.3816 168.671 84.8141 168.671 84.8141C168.671 84.8141 162.441 78.9985 143.957 82.9433C125.473 86.8881 118.267 93.9482 118.267 93.9482H118.271Z" fill="#2CB135" stroke="black" stroke-width="2.84679" stroke-linecap="round" stroke-linejoin="round"/>
<path d="M136.902 122.188C136.902 122.188 135.283 119.374 142.924 115.75C159.123 108.068 170.335 89.9991 193.597 92.2846C216.86 94.5702 223.501 108.483 222.464 114.298C221.427 120.114 217.27 126.344 202.113 127.381C186.956 128.419 176.569 136.935 163.072 137.142C149.574 137.349 136.763 130.289 136.763 130.289L136.906 122.192L136.902 122.188Z" fill="white" stroke="black" stroke-width="2.84679" stroke-linecap="round" stroke-linejoin="round"/>
<path d="M141.924 132.677C143.542 131.326 148.402 119.903 141.924 113.672C135.445 107.442 107.901 97.4415 86.021 114.616C78.7535 120.322 72.9379 128.211 67.952 130.289C62.966 132.368 57.1545 131.953 56.9471 133.612C56.7397 135.271 71.482 147.732 90.3806 148.773C109.279 149.814 116.315 143.787 124.843 140.676C133.371 137.565 140.305 134.031 141.928 132.681L141.924 132.677Z" fill="white" stroke="black" stroke-width="2.84679" stroke-linecap="round" stroke-linejoin="round"/>
<path d="M168.671 84.8099C168.671 84.8099 149.22 90.6947 134.579 102.529" stroke="black" stroke-width="2.84679" stroke-linecap="round" stroke-linejoin="round"/>
<path d="M137.759 110.768C137.759 110.768 134.856 85.7818 89.7219 98.1694C73.8368 102.529 65.2802 118.418 56.9431 123.4C48.6061 128.382 41.1272 128.386 41.1272 128.386" stroke="black" stroke-width="2.84679" stroke-linecap="round" stroke-linejoin="round"/>
<path d="M207.266 158.391C207.266 158.391 218.966 150.916 217.478 142.4C215.989 133.884 207.266 135.824 207.266 135.824C207.266 135.824 196.143 151.474 162.201 155.069C103.431 161.299 57.7442 149.668 52.136 152.161C46.5279 154.654 36.9749 164.414 45.4908 171.267C54.0068 178.12 97.2008 189.543 140.187 186.013C183.174 182.483 208.238 180.312 209.962 166.078C210.792 159.225 207.262 158.395 207.262 158.395L207.266 158.391Z" fill="#A85452" stroke="black" stroke-width="2.84679" stroke-linecap="round" stroke-linejoin="round"/>
<path d="M207.266 158.391C207.266 158.391 167.081 173.138 129.858 172.719C92.6338 172.3 64.1821 165.557 64.1821 165.557" stroke="black" stroke-width="2.84679" stroke-linecap="round" stroke-linejoin="round"/>
<path d="M209.384 185.452C209.384 185.452 231.606 164.419 233.147 123.299C234.953 75.1188 222.561 61.6209 222.561 61.6209C222.561 61.6209 210.519 58.9205 207.266 52.4827C204.012 46.0449 204.842 40.8515 204.842 40.8515C204.842 40.8515 209.515 20.8467 224.607 22.9208C239.699 24.9949 240.528 40.8515 240.528 40.8515C240.528 40.8515 246.067 46.6305 242.745 50.2297C239.422 53.8288 236.413 54.451 236.413 54.451C236.413 54.451 252.298 70.9625 247.938 126.975C243.578 182.988 217.612 197.006 217.612 197.006L209.393 185.452H209.384Z" fill="#2CB135" stroke="black" stroke-width="2.84679" stroke-linecap="round" stroke-linejoin="round"/>
<path d="M30.2767 196.823C30.2767 196.823 16.4739 168.123 16.8358 126.979C17.2506 79.6533 32.0499 61.6209 32.0499 61.6209C32.0499 61.6209 44.0918 58.9205 47.3453 52.4827C50.5987 46.0449 49.7691 40.8515 49.7691 40.8515C49.7691 40.8515 45.0963 20.8467 30.0043 22.9208C14.9122 24.9949 14.0826 40.8515 14.0826 40.8515C14.0826 40.8515 8.54351 46.6305 11.8661 50.2297C15.1887 53.8288 18.1982 54.451 18.1982 54.451C18.1982 54.451 1.4062 77.1562 2.01623 130.733C2.65472 186.912 19.0644 211.683 19.0644 211.683C19.0644 211.683 26.6491 206.006 28.4629 202.728C30.2767 199.45 30.2767 196.819 30.2767 196.819V196.823Z" fill="#2CB135" stroke="black" stroke-width="2.84679" stroke-linecap="round" stroke-linejoin="round"/>
<path d="M207.351 182.589L220.349 200.861L204.565 213.375L206.017 241.485L31.5738 241.131V232.013C31.5738 232.013 18.1776 225.16 13.818 216.437C13.818 216.437 24.7375 207.966 28.4586 202.732C29.9837 200.585 30.2724 196.823 30.2724 196.823L37.2634 201.528L42.0988 197.909C42.0988 197.909 112.561 208.718 150.358 202.073C188.155 195.428 207.343 182.589 207.343 182.589H207.351Z" fill="#215DB6" stroke="black" stroke-width="2.84679" stroke-linecap="round" stroke-linejoin="round"/>
<path d="M37.2675 201.529C39.2846 203.115 43.9127 207.759 43.9127 207.759" stroke="black" stroke-width="2.84679" stroke-linecap="round" stroke-linejoin="round"/>
<path d="M31.578 232.013C31.578 232.013 33.7253 233.465 38.1541 234.714" stroke="black" stroke-width="2.84679" stroke-linecap="round" stroke-linejoin="round"/>
<path d="M204.565 213.375C204.565 213.375 199.026 217.373 196.745 218.719" stroke="black" stroke-width="2.84679" stroke-linecap="round" stroke-linejoin="round"/>
<path d="M200.759 116.531C200.759 120.765 199.405 124.653 197.143 127.719C192.259 129.057 180.787 134.145 179.196 133.592C172.551 131.278 167.74 124.514 167.74 116.535C167.74 106.645 175.134 98.6249 184.251 98.6249C193.369 98.6249 200.763 106.645 200.763 116.535L200.759 116.531Z" fill="black"/>
<path d="M106.562 148.533C115.681 148.533 123.074 140.514 123.074 130.623C123.074 120.731 115.681 112.712 106.562 112.712C97.4434 112.712 90.051 120.731 90.051 130.623C90.051 140.514 97.4434 148.533 106.562 148.533Z" fill="black"/>
<path d="M191.861 121.774C194.269 121.774 196.221 118.891 196.221 115.336C196.221 111.78 194.269 108.898 191.861 108.898C189.453 108.898 187.501 111.78 187.501 115.336C187.501 118.891 189.453 121.774 191.861 121.774Z" fill="white"/>
<path d="M179.473 113.741C181.384 113.741 182.934 111.635 182.934 109.036C182.934 106.437 181.384 104.331 179.473 104.331C177.562 104.331 176.012 106.437 176.012 109.036C176.012 111.635 177.562 113.741 179.473 113.741Z" fill="white"/>
<path d="M178.127 126.979C180.137 126.979 181.767 125.349 181.767 123.339C181.767 121.329 180.137 119.699 178.127 119.699C176.117 119.699 174.487 121.329 174.487 123.339C174.487 125.349 176.117 126.979 178.127 126.979Z" fill="white"/>
<path d="M114.176 135.869C116.584 135.869 118.536 132.987 118.536 129.432C118.536 125.876 116.584 122.994 114.176 122.994C111.768 122.994 109.816 125.876 109.816 129.432C109.816 132.987 111.768 135.869 114.176 135.869Z" fill="white"/>
<path d="M101.788 127.837C103.7 127.837 105.249 125.731 105.249 123.132C105.249 120.533 103.7 118.427 101.788 118.427C99.877 118.427 98.3275 120.533 98.3275 123.132C98.3275 125.731 99.877 127.837 101.788 127.837Z" fill="white"/>
<path d="M100.442 141.071C102.452 141.071 104.082 139.441 104.082 137.431C104.082 135.421 102.452 133.791 100.442 133.791C98.4318 133.791 96.8022 135.421 96.8022 137.431C96.8022 139.441 98.4318 141.071 100.442 141.071Z" fill="white"/>
</svg>
